<mxfile host="app.diagrams.net" agent="Mozilla/5.0 (Windows NT 10.0; Win64; x64) AppleWebKit/537.36 (KHTML, like Gecko) Chrome/131.0.0.0 Safari/537.36 Edg/131.0.0.0" version="25.0.3">
  <diagram name="第 1 页" id="wW0VhtOMRZsGSEktbn0D">
    <mxGraphModel dx="1025" dy="708" grid="1" gridSize="10" guides="1" tooltips="1" connect="1" arrows="1" fold="1" page="1" pageScale="1" pageWidth="1169" pageHeight="827" math="1" shadow="0">
      <root>
        <mxCell id="0" />
        <mxCell id="1" parent="0" />
        <mxCell id="KHDkwFc494HQKRECkUOb-64" style="edgeStyle=orthogonalEdgeStyle;rounded=0;orthogonalLoop=1;jettySize=auto;html=1;exitX=1;exitY=0.5;exitDx=0;exitDy=0;entryX=0;entryY=0.5;entryDx=0;entryDy=0;" parent="1" source="KHDkwFc494HQKRECkUOb-3" target="KHDkwFc494HQKRECkUOb-15" edge="1">
          <mxGeometry relative="1" as="geometry" />
        </mxCell>
        <mxCell id="KHDkwFc494HQKRECkUOb-3" value="Analysis of the importance of features by RF" style="whiteSpace=wrap;strokeWidth=2;fontFamily=Times New Roman;fontSize=16;" parent="1" vertex="1">
          <mxGeometry x="520" y="200" width="180" height="49" as="geometry" />
        </mxCell>
        <mxCell id="KHDkwFc494HQKRECkUOb-73" style="edgeStyle=orthogonalEdgeStyle;rounded=0;orthogonalLoop=1;jettySize=auto;html=1;exitX=0;exitY=0.5;exitDx=0;exitDy=0;entryX=1;entryY=0.5;entryDx=0;entryDy=0;" parent="1" source="KHDkwFc494HQKRECkUOb-4" target="KHDkwFc494HQKRECkUOb-65" edge="1">
          <mxGeometry relative="1" as="geometry" />
        </mxCell>
        <mxCell id="KHDkwFc494HQKRECkUOb-4" value="Feature selection" style="whiteSpace=wrap;strokeWidth=2;fontFamily=Times New Roman;fontSize=16;" parent="1" vertex="1">
          <mxGeometry x="769.5" y="280" width="125" height="49" as="geometry" />
        </mxCell>
        <mxCell id="KHDkwFc494HQKRECkUOb-77" style="edgeStyle=orthogonalEdgeStyle;rounded=0;orthogonalLoop=1;jettySize=auto;html=1;exitX=0.5;exitY=1;exitDx=0;exitDy=0;entryX=0.5;entryY=0;entryDx=0;entryDy=0;" parent="1" source="KHDkwFc494HQKRECkUOb-5" target="KHDkwFc494HQKRECkUOb-19" edge="1">
          <mxGeometry relative="1" as="geometry" />
        </mxCell>
        <mxCell id="KHDkwFc494HQKRECkUOb-5" value="Data preprocessing" style="whiteSpace=wrap;strokeWidth=2;fontFamily=Times New Roman;fontSize=16;fillColor=#dae8fc;strokeColor=#6c8ebf;" parent="1" vertex="1">
          <mxGeometry x="574" y="365" width="142" height="49" as="geometry" />
        </mxCell>
        <mxCell id="KHDkwFc494HQKRECkUOb-91" style="edgeStyle=orthogonalEdgeStyle;rounded=0;orthogonalLoop=1;jettySize=auto;html=1;exitX=0.5;exitY=1;exitDx=0;exitDy=0;entryX=0.5;entryY=0;entryDx=0;entryDy=0;" parent="1" source="KHDkwFc494HQKRECkUOb-7" target="KHDkwFc494HQKRECkUOb-8" edge="1">
          <mxGeometry relative="1" as="geometry" />
        </mxCell>
        <mxCell id="KHDkwFc494HQKRECkUOb-7" value="Defining the MLP model" style="whiteSpace=wrap;strokeWidth=2;fontFamily=Times New Roman;fontSize=16;fillColor=#dae8fc;strokeColor=#6c8ebf;" parent="1" vertex="1">
          <mxGeometry x="568.5" y="540" width="153" height="49" as="geometry" />
        </mxCell>
        <mxCell id="KHDkwFc494HQKRECkUOb-100" style="edgeStyle=orthogonalEdgeStyle;rounded=0;orthogonalLoop=1;jettySize=auto;html=1;exitX=0.5;exitY=1;exitDx=0;exitDy=0;entryX=0.5;entryY=0;entryDx=0;entryDy=0;" parent="1" source="KHDkwFc494HQKRECkUOb-8" target="KHDkwFc494HQKRECkUOb-9" edge="1">
          <mxGeometry relative="1" as="geometry" />
        </mxCell>
        <mxCell id="KHDkwFc494HQKRECkUOb-8" value="Training Model" style="whiteSpace=wrap;strokeWidth=2;fontFamily=Times New Roman;fontSize=16;fillColor=#dae8fc;strokeColor=#6c8ebf;" parent="1" vertex="1">
          <mxGeometry x="582.5" y="640" width="125" height="49" as="geometry" />
        </mxCell>
        <mxCell id="KHDkwFc494HQKRECkUOb-101" style="edgeStyle=orthogonalEdgeStyle;rounded=0;orthogonalLoop=1;jettySize=auto;html=1;exitX=0.5;exitY=1;exitDx=0;exitDy=0;entryX=0.5;entryY=0;entryDx=0;entryDy=0;" parent="1" source="KHDkwFc494HQKRECkUOb-9" target="KHDkwFc494HQKRECkUOb-88" edge="1">
          <mxGeometry relative="1" as="geometry" />
        </mxCell>
        <mxCell id="KHDkwFc494HQKRECkUOb-9" value="evaluation model" style="whiteSpace=wrap;strokeWidth=2;fontFamily=Times New Roman;fontSize=16;fillColor=#dae8fc;strokeColor=#6c8ebf;" parent="1" vertex="1">
          <mxGeometry x="582.5" y="740" width="125" height="49" as="geometry" />
        </mxCell>
        <mxCell id="KHDkwFc494HQKRECkUOb-66" style="edgeStyle=orthogonalEdgeStyle;rounded=0;orthogonalLoop=1;jettySize=auto;html=1;exitX=0.5;exitY=1;exitDx=0;exitDy=0;entryX=0.5;entryY=0;entryDx=0;entryDy=0;" parent="1" source="KHDkwFc494HQKRECkUOb-15" target="KHDkwFc494HQKRECkUOb-4" edge="1">
          <mxGeometry relative="1" as="geometry" />
        </mxCell>
        <mxCell id="KHDkwFc494HQKRECkUOb-15" value="Ranking of feature importance" style="whiteSpace=wrap;strokeWidth=2;fontFamily=Times New Roman;fontSize=16;" parent="1" vertex="1">
          <mxGeometry x="729.5" y="200" width="205" height="49" as="geometry" />
        </mxCell>
        <mxCell id="KHDkwFc494HQKRECkUOb-82" style="edgeStyle=orthogonalEdgeStyle;rounded=0;orthogonalLoop=1;jettySize=auto;html=1;exitX=0;exitY=0.5;exitDx=0;exitDy=0;entryX=1;entryY=0.5;entryDx=0;entryDy=0;" parent="1" source="KHDkwFc494HQKRECkUOb-18" target="KHDkwFc494HQKRECkUOb-5" edge="1">
          <mxGeometry relative="1" as="geometry" />
        </mxCell>
        <mxCell id="KHDkwFc494HQKRECkUOb-18" value="Data merging and splitting(K-Fold)" style="whiteSpace=wrap;strokeWidth=2;fontFamily=Times New Roman;fontSize=16;fillColor=#d5e8d4;strokeColor=#82b366;" parent="1" vertex="1">
          <mxGeometry x="769.5" y="365" width="125" height="49" as="geometry" />
        </mxCell>
        <mxCell id="KHDkwFc494HQKRECkUOb-83" style="edgeStyle=orthogonalEdgeStyle;rounded=0;orthogonalLoop=1;jettySize=auto;html=1;exitX=0.5;exitY=1;exitDx=0;exitDy=0;entryX=0.5;entryY=0;entryDx=0;entryDy=0;" parent="1" source="KHDkwFc494HQKRECkUOb-19" target="KHDkwFc494HQKRECkUOb-7" edge="1">
          <mxGeometry relative="1" as="geometry" />
        </mxCell>
        <mxCell id="KHDkwFc494HQKRECkUOb-19" value="Data conversion to tensor" style="whiteSpace=wrap;strokeWidth=2;fontFamily=Times New Roman;fontSize=16;fillColor=#dae8fc;strokeColor=#6c8ebf;" parent="1" vertex="1">
          <mxGeometry x="558" y="450" width="174" height="49" as="geometry" />
        </mxCell>
        <mxCell id="KHDkwFc494HQKRECkUOb-93" style="edgeStyle=orthogonalEdgeStyle;rounded=0;orthogonalLoop=1;jettySize=auto;html=1;exitX=1;exitY=0.5;exitDx=0;exitDy=0;entryX=0;entryY=0.5;entryDx=0;entryDy=0;" parent="1" source="KHDkwFc494HQKRECkUOb-22" target="KHDkwFc494HQKRECkUOb-8" edge="1">
          <mxGeometry relative="1" as="geometry" />
        </mxCell>
        <mxCell id="KHDkwFc494HQKRECkUOb-22" value="Define the Optimiser" style="whiteSpace=wrap;strokeWidth=2;fontFamily=Times New Roman;fontSize=16;fillColor=#d5e8d4;strokeColor=#82b366;" parent="1" vertex="1">
          <mxGeometry x="390" y="601" width="142" height="49" as="geometry" />
        </mxCell>
        <mxCell id="KHDkwFc494HQKRECkUOb-96" style="rounded=0;orthogonalLoop=1;jettySize=auto;html=1;exitX=0;exitY=0.5;exitDx=0;exitDy=0;entryX=1;entryY=0.5;entryDx=0;entryDy=0;" parent="1" source="KHDkwFc494HQKRECkUOb-25" target="KHDkwFc494HQKRECkUOb-9" edge="1">
          <mxGeometry relative="1" as="geometry" />
        </mxCell>
        <mxCell id="KHDkwFc494HQKRECkUOb-25" value="Calculating average loss" style="whiteSpace=wrap;strokeWidth=2;fontFamily=Times New Roman;fontSize=16;fillColor=#d5e8d4;strokeColor=#82b366;" parent="1" vertex="1">
          <mxGeometry x="760" y="650" width="144" height="49" as="geometry" />
        </mxCell>
        <mxCell id="KHDkwFc494HQKRECkUOb-62" value="$$\mathrm{Imp}=[\mathrm{imp}_1,\mathrm{imp}_2,\ldots,\mathrm{imp}_d]$$" style="text;html=1;align=center;verticalAlign=middle;resizable=0;points=[];autosize=1;strokeColor=none;fillColor=none;" parent="1" vertex="1">
          <mxGeometry x="395" y="170" width="430" height="30" as="geometry" />
        </mxCell>
        <mxCell id="KHDkwFc494HQKRECkUOb-63" value="$$\text{ranked features = sort by descending(Imp)}$$" style="text;html=1;align=center;verticalAlign=middle;resizable=0;points=[];autosize=1;strokeColor=none;fillColor=none;" parent="1" vertex="1">
          <mxGeometry x="700" y="170" width="310" height="30" as="geometry" />
        </mxCell>
        <mxCell id="KHDkwFc494HQKRECkUOb-71" style="edgeStyle=orthogonalEdgeStyle;rounded=0;orthogonalLoop=1;jettySize=auto;html=1;exitX=0.5;exitY=1;exitDx=0;exitDy=0;entryX=0.5;entryY=0;entryDx=0;entryDy=0;" parent="1" source="KHDkwFc494HQKRECkUOb-65" target="KHDkwFc494HQKRECkUOb-5" edge="1">
          <mxGeometry relative="1" as="geometry" />
        </mxCell>
        <mxCell id="KHDkwFc494HQKRECkUOb-65" value="&lt;font style=&quot;font-size: 16px;&quot; face=&quot;Times New Roman&quot;&gt;Filtered data input&lt;/font&gt;" style="shape=parallelogram;perimeter=parallelogramPerimeter;whiteSpace=wrap;html=1;fixedSize=1;fillColor=#fff2cc;strokeColor=#d6b656;" parent="1" vertex="1">
          <mxGeometry x="570" y="274.5" width="150" height="60" as="geometry" />
        </mxCell>
        <mxCell id="KHDkwFc494HQKRECkUOb-74" value="&lt;font face=&quot;Times New Roman&quot;&gt;$$k\in\{50,60,70,\ldots,120,167\}$$&lt;/font&gt;" style="text;html=1;align=center;verticalAlign=middle;resizable=0;points=[];autosize=1;strokeColor=none;fillColor=none;" parent="1" vertex="1">
          <mxGeometry x="400" y="274.5" width="200" height="30" as="geometry" />
        </mxCell>
        <mxCell id="KHDkwFc494HQKRECkUOb-75" value="&lt;font face=&quot;Times New Roman&quot;&gt;Change the number of features&lt;/font&gt;" style="text;html=1;align=center;verticalAlign=middle;resizable=0;points=[];autosize=1;strokeColor=none;fillColor=none;" parent="1" vertex="1">
          <mxGeometry x="415" y="260" width="170" height="30" as="geometry" />
        </mxCell>
        <mxCell id="k1PDY-SbIJY4RnQ1nkLj-3" style="edgeStyle=orthogonalEdgeStyle;rounded=0;orthogonalLoop=1;jettySize=auto;html=1;exitX=1;exitY=0.5;exitDx=0;exitDy=0;entryX=0;entryY=0.5;entryDx=0;entryDy=0;" edge="1" parent="1" source="KHDkwFc494HQKRECkUOb-76" target="KHDkwFc494HQKRECkUOb-87">
          <mxGeometry relative="1" as="geometry" />
        </mxCell>
        <mxCell id="k1PDY-SbIJY4RnQ1nkLj-6" style="edgeStyle=orthogonalEdgeStyle;rounded=0;orthogonalLoop=1;jettySize=auto;html=1;exitX=0.5;exitY=1;exitDx=0;exitDy=0;entryX=0.5;entryY=0;entryDx=0;entryDy=0;" edge="1" parent="1" source="KHDkwFc494HQKRECkUOb-76" target="KHDkwFc494HQKRECkUOb-90">
          <mxGeometry relative="1" as="geometry" />
        </mxCell>
        <mxCell id="k1PDY-SbIJY4RnQ1nkLj-10" style="edgeStyle=orthogonalEdgeStyle;rounded=0;orthogonalLoop=1;jettySize=auto;html=1;exitX=0;exitY=0.5;exitDx=0;exitDy=0;entryX=0;entryY=0.5;entryDx=0;entryDy=0;" edge="1" parent="1" source="KHDkwFc494HQKRECkUOb-76" target="KHDkwFc494HQKRECkUOb-65">
          <mxGeometry relative="1" as="geometry">
            <Array as="points">
              <mxPoint x="370" y="975" />
              <mxPoint x="370" y="305" />
            </Array>
          </mxGeometry>
        </mxCell>
        <mxCell id="KHDkwFc494HQKRECkUOb-76" value="&lt;font face=&quot;Times New Roman&quot;&gt;&lt;span style=&quot;font-size: 16px;&quot;&gt;Does it traverse the entire set and determine the optimal number of features?&lt;/span&gt;&lt;/font&gt;" style="rhombus;whiteSpace=wrap;html=1;fillColor=#e1d5e7;strokeColor=#9673a6;" parent="1" vertex="1">
          <mxGeometry x="550" y="920" width="190" height="110" as="geometry" />
        </mxCell>
        <mxCell id="KHDkwFc494HQKRECkUOb-98" style="rounded=0;orthogonalLoop=1;jettySize=auto;html=1;exitX=0;exitY=0.5;exitDx=0;exitDy=0;entryX=1;entryY=0.5;entryDx=0;entryDy=0;" parent="1" source="KHDkwFc494HQKRECkUOb-85" target="KHDkwFc494HQKRECkUOb-9" edge="1">
          <mxGeometry relative="1" as="geometry" />
        </mxCell>
        <mxCell id="KHDkwFc494HQKRECkUOb-85" value="Calculating RMSE" style="whiteSpace=wrap;strokeWidth=2;fontFamily=Times New Roman;fontSize=16;fillColor=#d5e8d4;strokeColor=#82b366;" parent="1" vertex="1">
          <mxGeometry x="760" y="708" width="144" height="49" as="geometry" />
        </mxCell>
        <mxCell id="KHDkwFc494HQKRECkUOb-99" style="rounded=0;orthogonalLoop=1;jettySize=auto;html=1;exitX=0;exitY=0.5;exitDx=0;exitDy=0;entryX=1;entryY=0.5;entryDx=0;entryDy=0;" parent="1" source="KHDkwFc494HQKRECkUOb-86" target="KHDkwFc494HQKRECkUOb-9" edge="1">
          <mxGeometry relative="1" as="geometry" />
        </mxCell>
        <mxCell id="KHDkwFc494HQKRECkUOb-86" value="Calculating accuracy" style="whiteSpace=wrap;strokeWidth=2;fontFamily=Times New Roman;fontSize=16;fillColor=#d5e8d4;strokeColor=#82b366;" parent="1" vertex="1">
          <mxGeometry x="760" y="770" width="144" height="49" as="geometry" />
        </mxCell>
        <mxCell id="KHDkwFc494HQKRECkUOb-103" style="edgeStyle=orthogonalEdgeStyle;rounded=0;orthogonalLoop=1;jettySize=auto;html=1;exitX=1;exitY=0.5;exitDx=0;exitDy=0;entryX=0.75;entryY=0;entryDx=0;entryDy=0;" parent="1" source="KHDkwFc494HQKRECkUOb-87" target="KHDkwFc494HQKRECkUOb-8" edge="1">
          <mxGeometry relative="1" as="geometry" />
        </mxCell>
        <mxCell id="KHDkwFc494HQKRECkUOb-87" value="10-Fold" style="whiteSpace=wrap;strokeWidth=2;fontFamily=Times New Roman;fontSize=16;fillColor=#d5e8d4;strokeColor=#82b366;" parent="1" vertex="1">
          <mxGeometry x="818" y="955.25" width="74" height="39.5" as="geometry" />
        </mxCell>
        <mxCell id="k1PDY-SbIJY4RnQ1nkLj-1" style="edgeStyle=orthogonalEdgeStyle;rounded=0;orthogonalLoop=1;jettySize=auto;html=1;exitX=0.5;exitY=1;exitDx=0;exitDy=0;entryX=0.5;entryY=0;entryDx=0;entryDy=0;" edge="1" parent="1" source="KHDkwFc494HQKRECkUOb-88" target="KHDkwFc494HQKRECkUOb-76">
          <mxGeometry relative="1" as="geometry" />
        </mxCell>
        <mxCell id="KHDkwFc494HQKRECkUOb-88" value="Recording RMSE and accuracy" style="whiteSpace=wrap;strokeWidth=2;fontFamily=Times New Roman;fontSize=16;fillColor=#dae8fc;strokeColor=#6c8ebf;" parent="1" vertex="1">
          <mxGeometry x="573" y="850" width="144" height="49" as="geometry" />
        </mxCell>
        <mxCell id="KHDkwFc494HQKRECkUOb-90" value="&lt;font style=&quot;font-size: 16px;&quot; face=&quot;Times New Roman&quot;&gt;Output antigen distance&lt;/font&gt;" style="shape=parallelogram;perimeter=parallelogramPerimeter;whiteSpace=wrap;html=1;fixedSize=1;fillColor=#fff2cc;strokeColor=#d6b656;" parent="1" vertex="1">
          <mxGeometry x="570" y="1060" width="150" height="60" as="geometry" />
        </mxCell>
        <mxCell id="KHDkwFc494HQKRECkUOb-95" style="edgeStyle=orthogonalEdgeStyle;rounded=0;orthogonalLoop=1;jettySize=auto;html=1;exitX=1;exitY=0.5;exitDx=0;exitDy=0;entryX=0;entryY=0.5;entryDx=0;entryDy=0;" parent="1" source="KHDkwFc494HQKRECkUOb-92" target="KHDkwFc494HQKRECkUOb-8" edge="1">
          <mxGeometry relative="1" as="geometry" />
        </mxCell>
        <mxCell id="KHDkwFc494HQKRECkUOb-92" value="Define the learning rate scheduler" style="whiteSpace=wrap;strokeWidth=2;fontFamily=Times New Roman;fontSize=16;fillColor=#d5e8d4;strokeColor=#82b366;" parent="1" vertex="1">
          <mxGeometry x="390" y="680" width="142" height="49" as="geometry" />
        </mxCell>
        <mxCell id="KHDkwFc494HQKRECkUOb-108" value="&lt;p data-pm-slice=&quot;1 1 []&quot;&gt;$$\theta \leftarrow \theta - \eta \nabla_\theta \mathcal{L}_\text{batch}$$&lt;/p&gt;" style="text;html=1;align=center;verticalAlign=middle;resizable=0;points=[];autosize=1;strokeColor=none;fillColor=none;" parent="1" vertex="1">
          <mxGeometry x="250" y="519" width="400" height="50" as="geometry" />
        </mxCell>
        <mxCell id="KHDkwFc494HQKRECkUOb-109" value="$$\text{Imp}_j = \sum_{t \in \text{Trees}} \Delta \text{Imp}_{j,t}$$" style="text;html=1;align=center;verticalAlign=middle;resizable=0;points=[];autosize=1;strokeColor=none;fillColor=none;" parent="1" vertex="1">
          <mxGeometry x="409" y="150" width="360" height="30" as="geometry" />
        </mxCell>
        <mxCell id="KHDkwFc494HQKRECkUOb-110" value="$$\mathcal{L}_{\text{batch}} = \frac{1}{B} \sum_{i=1}^{B} (y_{i} - \hat{y}_{i})^2$$" style="text;html=1;align=center;verticalAlign=middle;resizable=0;points=[];autosize=1;strokeColor=none;fillColor=none;" parent="1" vertex="1">
          <mxGeometry x="247" y="562.5" width="440" height="30" as="geometry" />
        </mxCell>
        <mxCell id="k1PDY-SbIJY4RnQ1nkLj-5" value="&lt;font style=&quot;font-size: 16px;&quot; face=&quot;Times New Roman&quot;&gt;&lt;i&gt;Yes&lt;/i&gt;&lt;/font&gt;" style="text;html=1;align=center;verticalAlign=middle;resizable=0;points=[];autosize=1;strokeColor=none;fillColor=none;" vertex="1" parent="1">
          <mxGeometry x="760" y="948" width="40" height="30" as="geometry" />
        </mxCell>
        <mxCell id="k1PDY-SbIJY4RnQ1nkLj-11" value="&lt;font style=&quot;font-size: 16px;&quot; face=&quot;Times New Roman&quot;&gt;&lt;i&gt;No&lt;/i&gt;&lt;/font&gt;" style="text;html=1;align=center;verticalAlign=middle;resizable=0;points=[];autosize=1;strokeColor=none;fillColor=none;" vertex="1" parent="1">
          <mxGeometry x="480" y="948" width="40" height="30" as="geometry" />
        </mxCell>
        <mxCell id="k1PDY-SbIJY4RnQ1nkLj-12" value="&lt;font style=&quot;font-size: 16px;&quot; face=&quot;Times New Roman&quot;&gt;&lt;i&gt;After 10-Fold&lt;/i&gt;&lt;/font&gt;" style="text;html=1;align=center;verticalAlign=middle;resizable=0;points=[];autosize=1;strokeColor=none;fillColor=none;" vertex="1" parent="1">
          <mxGeometry x="640" y="1028" width="110" height="30" as="geometry" />
        </mxCell>
      </root>
    </mxGraphModel>
  </diagram>
</mxfile>
